grf
version=1
nRows=12
nColumns=37
inDegrees=no
endheader
time	ground_force_1_vx	ground_force_1_vy	ground_force_1_vz	ground_force_1_px	ground_force_1_py	ground_force_1_pz	ground_moment_1_mx	ground_moment_1_my	ground_moment_1_mz	ground_force_2_vx	ground_force_2_vy	ground_force_2_vz	ground_force_2_px	ground_force_2_py	ground_force_2_pz	ground_moment_2_mx	ground_moment_2_my	ground_moment_2_mz	ground_force_3_vx	ground_force_3_vy	ground_force_3_vz	ground_force_3_px	ground_force_3_py	ground_force_3_pz	ground_moment_3_mx	ground_moment_3_my	ground_moment_3_mz	ground_force_4_vx	ground_force_4_vy	ground_force_4_vz	ground_force_4_px	ground_force_4_py	ground_force_4_pz	ground_moment_4_mx	ground_moment_4_my	ground_moment_4_mz
      2.46000000	      0.00000000	     -0.00000000	      0.00000000	      0.00000000	      0.00000000	      0.00000000	      0.00000000	      0.00000000	      0.00000000	    -25.33672142	     99.77294922	   -548.98803711	   -338.81651921	  -1138.59068688	      0.00000000	      0.00000000	      0.00000000	    947.18066239	    -25.37270625	    -74.47228019	   -512.54620361	   -318.91564715	   -658.54092328	      0.00000000	      0.00000000	     -0.00000000	   -793.95501750	      0.00000000	     -0.00000000	      0.00000000	      0.00000000	      0.00000000	      0.00000000	      0.00000000	      0.00000000	      0.00000000
      2.47000000	      0.00000000	     -0.00000000	      0.00000000	      0.00000000	      0.00000000	      0.00000000	      0.00000000	      0.00000000	      0.00000000	    -14.50501156	     95.33326721	   -544.32214355	   -352.82617899	  -1137.17435901	      0.00000000	      0.00000000	      0.00000000	   2331.93391431	    -14.19504499	    -81.81912107	   -554.44757080	   -333.66383674	   -661.28554321	      0.00000000	      0.00000000	     -0.00000000	  -1358.64836187	      0.00000000	     -0.00000000	      0.00000000	      0.00000000	      0.00000000	      0.00000000	      0.00000000	      0.00000000	      0.00000000
      2.48000000	      0.00000000	     -0.00000000	      0.00000000	      0.00000000	      0.00000000	      0.00000000	      0.00000000	      0.00000000	      0.00000000	     -3.71244812	     89.41820526	   -531.31878662	   -367.04397351	  -1134.78264303	      0.00000000	      0.00000000	      0.00000000	   3827.75740732	    -11.79662600	    -86.25229542	   -557.59509277	   -343.45772306	   -663.11880148	      0.00000000	      0.00000000	     -0.00000000	  -1787.65560693	      0.00000000	     -0.00000000	      0.00000000	      0.00000000	      0.00000000	      0.00000000	      0.00000000	      0.00000000	      0.00000000
      2.49000000	      0.00000000	     -0.00000000	      0.00000000	      0.00000000	      0.00000000	      0.00000000	      0.00000000	      0.00000000	      0.00000000	      5.11636209	     83.58864594	   -509.99182129	   -380.08735970	  -1131.94674753	      0.00000000	      0.00000000	      0.00000000	   5057.41020990	    -14.42339612	    -87.36585872	   -533.93426514	   -350.13597810	   -663.84600325	      0.00000000	      0.00000000	     -0.00000000	  -2443.27459295	      0.00000000	     -0.00000000	      0.00000000	      0.00000000	      0.00000000	      0.00000000	      0.00000000	      0.00000000	      0.00000000
      2.50000000	      0.00000000	     -0.00000000	      0.00000000	      0.00000000	      0.00000000	      0.00000000	      0.00000000	      0.00000000	      0.00000000	     12.89849377	     77.83270264	   -484.30966187	   -393.44844412	  -1129.78265963	      0.00000000	      0.00000000	      0.00000000	   6215.91832999	    -15.38058375	    -87.13693103	   -503.83807373	   -358.62956747	   -665.88987048	      0.00000000	      0.00000000	     -0.00000000	  -3304.56178031	      0.00000000	     -0.00000000	      0.00000000	      0.00000000	      0.00000000	      0.00000000	      0.00000000	      0.00000000	      0.00000000
      2.51000000	      0.00000000	     -0.00000000	      0.00000000	      0.00000000	      0.00000000	      0.00000000	      0.00000000	      0.00000000	      0.00000000	     20.20954132	     71.84703827	   -463.85708618	   -405.07717661	  -1128.38472700	      0.00000000	      0.00000000	      0.00000000	   6902.81148786	    -11.39196276	    -84.42083641	   -483.51687622	   -368.18216601	   -666.97789434	      0.00000000	      0.00000000	     -0.00000000	  -4452.08775343	      0.00000000	     -0.00000000	      0.00000000	      0.00000000	      0.00000000	      0.00000000	      0.00000000	      0.00000000	      0.00000000
      2.52000000	      0.00000000	     -0.00000000	      0.00000000	      0.00000000	      0.00000000	      0.00000000	      0.00000000	      0.00000000	      0.00000000	     24.73509216	     63.91564941	   -444.54129028	   -414.62065368	  -1126.64932031	      0.00000000	      0.00000000	      0.00000000	   6869.55378271	     -4.17374365	    -80.99529230	   -475.60073853	   -378.75034866	   -669.75046007	      0.00000000	      0.00000000	     -0.00000000	  -5700.08493248	      0.00000000	     -0.00000000	      0.00000000	      0.00000000	      0.00000000	      0.00000000	      0.00000000	      0.00000000	      0.00000000
      2.53000000	      0.00000000	     -0.00000000	      0.00000000	      0.00000000	      0.00000000	      0.00000000	      0.00000000	      0.00000000	      0.00000000	     24.74904823	     44.97480392	   -430.15286255	   -421.77873779	  -1125.33614518	      0.00000000	      0.00000000	      0.00000000	   4095.61040340	      7.20837066	    -76.66322390	   -478.53955078	   -388.33142309	   -670.23531521	      0.00000000	      0.00000000	     -0.00000000	  -6962.29931800	      0.00000000	     -0.00000000	      0.00000000	      0.00000000	      0.00000000	      0.00000000	      0.00000000	      0.00000000	      0.00000000
      2.54000000	      0.00000000	     -0.00000000	      0.00000000	      0.00000000	      0.00000000	      0.00000000	      0.00000000	      0.00000000	      0.00000000	     24.25956345	     45.10567474	   -419.80319214	   -425.63047449	  -1124.41817495	      0.00000000	      0.00000000	      0.00000000	   4347.04310950	     16.62908103	    -73.45157006	   -479.66021729	   -397.59673496	   -673.61124379	      0.00000000	      0.00000000	     -0.00000000	  -8260.11025020	      0.00000000	     -0.00000000	      0.00000000	      0.00000000	      0.00000000	      0.00000000	      0.00000000	      0.00000000	      0.00000000
      2.55000000	      0.00000000	     -0.00000000	      0.00000000	      0.00000000	      0.00000000	      0.00000000	      0.00000000	      0.00000000	      0.00000000	     24.41175842	     57.62276840	   -413.32125854	   -427.50119196	  -1124.52521358	      0.00000000	      0.00000000	      0.00000000	   5731.19609004	     23.76834466	    -68.00158899	   -478.06323242	   -404.80807754	   -675.51111743	      0.00000000	      0.00000000	     -0.00000000	  -8868.49724330	      0.00000000	     -0.00000000	      0.00000000	      0.00000000	      0.00000000	      0.00000000	      0.00000000	      0.00000000	      0.00000000
      2.56000000	      0.00000000	     -0.00000000	      0.00000000	      0.00000000	      0.00000000	      0.00000000	      0.00000000	      0.00000000	      0.00000000	     28.23423767	     63.94495392	   -400.22906494	   -428.47194653	  -1125.24933750	      0.00000000	      0.00000000	      0.00000000	   6329.23075545	     28.03260296	    -58.00276811	   -476.26937866	   -410.89461349	   -676.79966928	      0.00000000	      0.00000000	     -0.00000000	  -8546.94691622	      0.00000000	     -0.00000000	      0.00000000	      0.00000000	      0.00000000	      0.00000000	      0.00000000	      0.00000000	      0.00000000
      2.57000000	      0.00000000	     -0.00000000	      0.00000000	      0.00000000	      0.00000000	      0.00000000	      0.00000000	      0.00000000	      0.00000000	     31.10755539	     64.25547791	   -382.11077881	   -429.62838290	  -1125.22033469	      0.00000000	      0.00000000	      0.00000000	   6348.78225457	     29.62210603	    -49.64864990	   -470.08053589	   -416.11107475	   -677.88160323	      0.00000000	      0.00000000	     -0.00000000	  -7597.68339694	      0.00000000	     -0.00000000	      0.00000000	      0.00000000	      0.00000000	      0.00000000	      0.00000000	      0.00000000	      0.00000000
